<svg xmlns="http://www.w3.org/2000/svg" xmlns:xlink="http://www.w3.org/1999/xlink" viewBox="0,0,256,256" width="50px" height="50px"><g fill="#f3005b" fill-rule="nonzero" stroke="none" stroke-width="1" stroke-linecap="butt" stroke-linejoin="miter" stroke-miterlimit="10" stroke-dasharray="" stroke-dashoffset="0" font-family="none" font-weight="none" font-size="none" text-anchor="none" style="mix-blend-mode: normal"><g transform="scale(5.12,5.12)"><path d="M47.819,32.652l-14.799,-26.117c-0.887,-1.563 -2.554,-2.535 -4.351,-2.535h-8.669c-0.357,0 -0.687,0.19 -0.865,0.499c-0.179,0.31 -0.18,0.69 -0.002,0.999l23,40c0.179,0.312 0.51,0.502 0.867,0.502c0.01,0 0.02,0 0.029,0c0.368,-0.011 0.7,-0.224 0.865,-0.553l4.047,-8.094c0.747,-1.492 0.701,-3.249 -0.122,-4.701zM27.84,28.457l-11,-17c-0.185,-0.285 -0.501,-0.457 -0.84,-0.457c-0.007,0 -0.014,0 -0.021,0c-0.347,0.008 -0.665,0.194 -0.841,0.493l-10,17c-0.182,0.309 -0.184,0.692 -0.006,1.003c0.178,0.312 0.51,0.504 0.868,0.504h21c0.366,0 0.703,-0.2 0.879,-0.522c0.175,-0.322 0.16,-0.713 -0.039,-1.021zM36.874,44.515l-5,-9c-0.176,-0.318 -0.511,-0.515 -0.874,-0.515h-28c-0.354,0 -0.683,0.188 -0.862,0.493c-0.18,0.305 -0.184,0.683 -0.012,0.992l5,9c0.176,0.318 0.511,0.515 0.874,0.515h28c0.354,0 0.683,-0.188 0.862,-0.493c0.18,-0.305 0.184,-0.683 0.012,-0.992z"></path></g></g></svg>